<svg xmlns="http://www.w3.org/2000/svg" width="1600" height="900" viewBox="0 0 1600 900">
  <defs>
    <linearGradient id="bg" x1="0" y1="0" x2="1" y2="1">
      <stop offset="0%" stop-color="#F3EDE4"/>
      <stop offset="100%" stop-color="#E8DFD2"/>
    </linearGradient>
  </defs>
  <rect width="1600" height="900" fill="url(#bg)"/>
  <!-- Decorative botanical elements -->
  <path d="M800 800 L800 300" stroke="#C5A258" stroke-width="1" opacity="0.15"/>
  <path d="M800 600 C700 500, 600 400, 650 250 C680 350, 740 450, 800 500" stroke="#C5A258" stroke-width="1" fill="none" opacity="0.12"/>
  <path d="M800 500 C900 400, 1000 300, 950 150 C920 250, 860 380, 800 430" stroke="#C5A258" stroke-width="1" fill="none" opacity="0.12"/>
  <path d="M800 400 C730 320, 660 200, 690 100 C710 180, 755 280, 800 340" stroke="#C5A258" stroke-width="1" fill="none" opacity="0.1"/>
  <!-- Scattered gemstone shapes -->
  <circle cx="400" cy="350" r="30" fill="#C9A9A6" opacity="0.1"/>
  <circle cx="1100" cy="450" r="25" fill="#A3B18A" opacity="0.1"/>
  <circle cx="600" cy="600" r="20" fill="#C5A258" opacity="0.08"/>
  <circle cx="1000" cy="300" r="15" fill="#C9A9A6" opacity="0.08"/>
</svg>
